<mxfile host="app.diagrams.net" modified="2023-01-26T10:12:21.360Z" agent="5.0 (Windows NT 10.0; Win64; x64) AppleWebKit/537.36 (KHTML, like Gecko) Chrome/109.0.0.0 Safari/537.36" etag="nrAymsVARmdZo5gQWmfb" version="20.8.10" type="github">
  <diagram name="Page-1" id="OuSeQgMOFPEEeFbKxJzw">
    <mxGraphModel dx="1041" dy="644" grid="0" gridSize="10" guides="1" tooltips="1" connect="1" arrows="1" fold="1" page="1" pageScale="1" pageWidth="827" pageHeight="1169" math="0" shadow="0">
      <root>
        <mxCell id="0" />
        <mxCell id="1" parent="0" />
        <mxCell id="DrVHmkKgQy8wabPu3BH7-12" value="" style="ellipse;whiteSpace=wrap;html=1;" vertex="1" parent="1">
          <mxGeometry x="414" y="180" width="270" height="370" as="geometry" />
        </mxCell>
        <mxCell id="DrVHmkKgQy8wabPu3BH7-11" value="" style="ellipse;whiteSpace=wrap;html=1;" vertex="1" parent="1">
          <mxGeometry x="80" y="180" width="270" height="370" as="geometry" />
        </mxCell>
        <mxCell id="DrVHmkKgQy8wabPu3BH7-1" value="" style="endArrow=none;html=1;rounded=0;" edge="1" parent="1">
          <mxGeometry width="50" height="50" relative="1" as="geometry">
            <mxPoint x="360" y="280" as="sourcePoint" />
            <mxPoint x="360" y="120" as="targetPoint" />
          </mxGeometry>
        </mxCell>
        <mxCell id="DrVHmkKgQy8wabPu3BH7-2" value="" style="endArrow=none;html=1;rounded=0;" edge="1" parent="1">
          <mxGeometry width="50" height="50" relative="1" as="geometry">
            <mxPoint x="400" y="280" as="sourcePoint" />
            <mxPoint x="400" y="120" as="targetPoint" />
          </mxGeometry>
        </mxCell>
        <mxCell id="DrVHmkKgQy8wabPu3BH7-3" value="" style="endArrow=none;html=1;rounded=0;" edge="1" parent="1">
          <mxGeometry width="50" height="50" relative="1" as="geometry">
            <mxPoint x="360" y="280" as="sourcePoint" />
            <mxPoint x="280" y="340" as="targetPoint" />
          </mxGeometry>
        </mxCell>
        <mxCell id="DrVHmkKgQy8wabPu3BH7-4" value="" style="endArrow=none;html=1;rounded=0;" edge="1" parent="1">
          <mxGeometry width="50" height="50" relative="1" as="geometry">
            <mxPoint x="400" y="280" as="sourcePoint" />
            <mxPoint x="480" y="340" as="targetPoint" />
          </mxGeometry>
        </mxCell>
        <mxCell id="DrVHmkKgQy8wabPu3BH7-5" value="" style="endArrow=none;html=1;rounded=0;exitX=-0.006;exitY=0.458;exitDx=0;exitDy=0;exitPerimeter=0;" edge="1" parent="1">
          <mxGeometry width="50" height="50" relative="1" as="geometry">
            <mxPoint x="280.5999999999999" y="391.81999999999994" as="sourcePoint" />
            <mxPoint x="380" y="318" as="targetPoint" />
          </mxGeometry>
        </mxCell>
        <mxCell id="DrVHmkKgQy8wabPu3BH7-6" value="" style="endArrow=none;html=1;rounded=0;entryX=-0.012;entryY=0.542;entryDx=0;entryDy=0;entryPerimeter=0;" edge="1" parent="1">
          <mxGeometry width="50" height="50" relative="1" as="geometry">
            <mxPoint x="380" y="318" as="sourcePoint" />
            <mxPoint x="478.79999999999995" y="391.82000000000005" as="targetPoint" />
          </mxGeometry>
        </mxCell>
        <mxCell id="DrVHmkKgQy8wabPu3BH7-8" value="" style="shape=or;whiteSpace=wrap;html=1;rotation=-180;" vertex="1" parent="1">
          <mxGeometry x="180" y="260" width="100" height="210" as="geometry" />
        </mxCell>
        <mxCell id="DrVHmkKgQy8wabPu3BH7-10" value="" style="shape=or;whiteSpace=wrap;html=1;rotation=0;" vertex="1" parent="1">
          <mxGeometry x="480" y="260" width="100" height="210" as="geometry" />
        </mxCell>
        <mxCell id="DrVHmkKgQy8wabPu3BH7-17" value="B" style="ellipse;whiteSpace=wrap;html=1;aspect=fixed;strokeColor=#000000;gradientColor=none;" vertex="1" parent="1">
          <mxGeometry x="580" y="250" width="20" height="20" as="geometry" />
        </mxCell>
        <mxCell id="DrVHmkKgQy8wabPu3BH7-18" value="A" style="ellipse;whiteSpace=wrap;html=1;aspect=fixed;strokeColor=#000000;gradientColor=none;" vertex="1" parent="1">
          <mxGeometry x="510" y="300" width="20" height="20" as="geometry" />
        </mxCell>
        <mxCell id="DrVHmkKgQy8wabPu3BH7-21" value="C" style="ellipse;whiteSpace=wrap;html=1;aspect=fixed;strokeColor=#000000;gradientColor=none;" vertex="1" parent="1">
          <mxGeometry x="660" y="190" width="20" height="20" as="geometry" />
        </mxCell>
        <mxCell id="DrVHmkKgQy8wabPu3BH7-22" value="1" style="ellipse;whiteSpace=wrap;html=1;aspect=fixed;strokeColor=#000000;gradientColor=none;" vertex="1" parent="1">
          <mxGeometry x="190" y="420" width="20" height="20" as="geometry" />
        </mxCell>
        <mxCell id="DrVHmkKgQy8wabPu3BH7-23" value="2" style="ellipse;whiteSpace=wrap;html=1;aspect=fixed;strokeColor=#000000;gradientColor=none;" vertex="1" parent="1">
          <mxGeometry x="140" y="450" width="20" height="20" as="geometry" />
        </mxCell>
        <mxCell id="DrVHmkKgQy8wabPu3BH7-24" value="3" style="ellipse;whiteSpace=wrap;html=1;aspect=fixed;strokeColor=#000000;gradientColor=none;" vertex="1" parent="1">
          <mxGeometry x="100" y="470" width="20" height="20" as="geometry" />
        </mxCell>
      </root>
    </mxGraphModel>
  </diagram>
</mxfile>
